# Blender v2.79 (sub 0) OBJ File: 'texturePractice.blend'
# www.blender.org
o Cube
v 1.000000 -1.000000 -1.000000
v 1.000000 -1.000000 1.000000
v -1.000000 -1.000000 1.000000
v -1.000000 -1.000000 -1.000000
v 1.000000 1.000000 -0.999999
v 0.999999 1.000000 1.000001
v -1.000000 1.000000 1.000000
v -1.000000 1.000000 -1.000000
v 1.000000 -1.000000 -1.000000
v 1.000000 -1.000000 -1.000000
v 1.000000 -1.000000 1.000000
v 1.000000 -1.000000 1.000000
v -1.000000 -1.000000 -1.000000
v -1.000000 -1.000000 -1.000000
v 1.000000 1.000000 -0.999999
v 1.000000 1.000000 -0.999999
v -1.000000 -1.000000 1.000000
v -1.000000 -1.000000 1.000000
v 0.999999 1.000000 1.000001
v 0.999999 1.000000 1.000001
v -1.000000 1.000000 1.000000
v -1.000000 1.000000 1.000000
v -1.000000 1.000000 -1.000000
v -1.000000 1.000000 -1.000000
vt 0.621853 0.250065
vt 0.371897 0.000108
vt 0.621853 0.000108
vt 0.371897 0.749979
vt 0.621853 0.500022
vt 0.621854 0.749978
vt 0.871810 0.000108
vt 0.621853 0.250065
vt 0.621853 0.000108
vt 0.621853 0.500022
vt 0.371897 0.250065
vt 0.621853 0.250065
vt 0.371897 0.250065
vt 0.121940 0.000108
vt 0.371897 0.000108
vt 0.621854 0.999935
vt 0.371897 0.749979
vt 0.621854 0.749978
vt 0.371897 0.250065
vt 0.371897 0.500022
vt 0.871810 0.250065
vt 0.371897 0.500022
vt 0.121940 0.250065
vt 0.371897 0.999935
vn 0.0000 -1.0000 0.0000
vn 0.0000 1.0000 0.0000
vn 1.0000 -0.0000 0.0000
vn 0.0000 -0.0000 1.0000
vn -1.0000 -0.0000 -0.0000
vn 0.0000 0.0000 -1.0000
s off
f 11/1/1 13/2/1 9/3/1
f 24/4/2 20/5/2 16/6/2
f 15/7/3 12/8/3 10/9/3
f 6/10/4 18/11/4 2/12/4
f 3/13/5 23/14/5 14/15/5
f 1/16/6 8/17/6 5/18/6
f 11/1/1 17/19/1 13/2/1
f 24/4/2 22/20/2 20/5/2
f 15/7/3 19/21/3 12/8/3
f 6/10/4 21/22/4 18/11/4
f 3/13/5 7/23/5 23/14/5
f 1/16/6 4/24/6 8/17/6
