# Blender v2.82 (sub 7) OBJ File: 'flashlight.blend'
# www.blender.org
o Cylinder_Cylinder.001
v -0.000000 -1.185823 -0.675000
v -0.000000 1.865430 -0.675000
v 0.337500 -1.185823 -0.584567
v 0.337500 1.865430 -0.584567
v 0.584567 -1.185823 -0.337500
v 0.584567 1.865430 -0.337500
v 0.675000 -1.185823 0.000000
v 0.675000 1.865430 0.000000
v 0.584567 -1.185823 0.337500
v 0.584567 1.865430 0.337500
v 0.337500 -1.185823 0.584567
v 0.337500 1.865430 0.584567
v 0.000000 -1.185823 0.675000
v 0.000000 1.865430 0.675000
v -0.337500 -1.185823 0.584567
v -0.337500 1.865430 0.584567
v -0.584567 -1.185823 0.337500
v -0.584567 1.865430 0.337500
v -0.675000 -1.185823 0.000000
v -0.675000 1.865430 0.000000
v -0.584567 -1.185823 -0.337500
v -0.584567 1.865430 -0.337500
v -0.337500 -1.185823 -0.584567
v -0.337500 1.865430 -0.584567
v 0.742395 2.971701 -1.285866
v 0.000000 2.971701 -1.484790
v 1.285866 2.971701 -0.742395
v 1.484790 2.971701 -0.000000
v 1.285866 2.971701 0.742395
v 0.742395 2.971701 1.285866
v 0.000000 2.971701 1.484790
v -0.742395 2.971701 1.285866
v -1.285865 2.971701 0.742395
v -1.484790 2.971701 0.000001
v -1.285866 2.971701 -0.742394
v -0.742396 2.971701 -1.285865
v 0.742395 3.448178 -1.285866
v 0.000000 3.448178 -1.484790
v 1.285866 3.448178 -0.742395
v 1.484790 3.448178 -0.000000
v 1.285866 3.448178 0.742395
v 0.742395 3.448178 1.285866
v 0.000000 3.448178 1.484790
v -0.742395 3.448178 1.285866
v -1.285865 3.448178 0.742395
v -1.484790 3.448178 0.000001
v -1.285866 3.448178 -0.742394
v -0.742396 3.448178 -1.285865
vt 1.000000 1.000000
vt 0.916667 0.500000
vt 1.000000 0.500000
vt 0.916667 1.000000
vt 0.833333 0.500000
vt 0.833333 1.000000
vt 0.750000 0.500000
vt 0.750000 1.000000
vt 0.666667 0.500000
vt 0.666667 1.000000
vt 0.583333 0.500000
vt 0.583333 1.000000
vt 0.500000 0.500000
vt 0.500000 1.000000
vt 0.416667 0.500000
vt 0.416667 1.000000
vt 0.333333 0.500000
vt 0.333333 1.000000
vt 0.250000 0.500000
vt 0.250000 1.000000
vt 0.166667 0.500000
vt 0.333333 1.000000
vt 0.166667 1.000000
vt 0.083333 0.500000
vt 0.083333 1.000000
vt 0.000000 0.500000
vt 0.990000 0.250000
vt 0.630000 0.042154
vt 0.630000 0.457846
vt 0.666667 1.000000
vt 0.583333 1.000000
vt 0.583333 1.000000
vt 0.416667 1.000000
vt 0.500000 1.000000
vt 0.000000 1.000000
vt 0.083333 1.000000
vt 0.000000 1.000000
vt 1.000000 1.000000
vt 0.916667 1.000000
vt 0.750000 1.000000
vt 0.833333 1.000000
vt 0.166667 1.000000
vt 0.250000 1.000000
vt 0.250000 0.010000
vt 0.457846 0.130000
vt 0.457846 0.370000
vt 0.000000 1.000000
vt 0.833333 1.000000
vt 0.250000 1.000000
vt 0.500000 1.000000
vt 0.750000 1.000000
vt 0.166667 1.000000
vt 0.416667 1.000000
vt 0.666667 1.000000
vt 0.083333 1.000000
vt 0.916667 1.000000
vt 0.333333 1.000000
vt 0.750000 0.490000
vt 0.870000 0.457846
vt 0.957846 0.370000
vt 0.957846 0.130000
vt 0.870000 0.042154
vt 0.750000 0.010000
vt 0.542154 0.130000
vt 0.510000 0.250000
vt 0.542154 0.370000
vt 0.370000 0.457846
vt 0.250000 0.490000
vt 0.130000 0.457846
vt 0.042154 0.370000
vt 0.010000 0.250000
vt 0.042154 0.130000
vt 0.130000 0.042154
vt 0.370000 0.042154
vt 0.490000 0.250000
vt 1.000000 1.000000
vn 0.2588 0.0000 -0.9659
vn 0.7071 0.0000 -0.7071
vn 0.9659 0.0000 -0.2588
vn 0.9659 0.0000 0.2588
vn 0.7071 0.0000 0.7071
vn 0.2588 0.0000 0.9659
vn -0.2588 0.0000 0.9659
vn -0.7071 0.0000 0.7071
vn -0.9659 0.0000 0.2588
vn -0.9659 0.0000 -0.2588
vn -0.5774 -0.5773 0.5774
vn -0.7071 0.0000 -0.7071
vn -0.2588 0.0000 -0.9659
vn 0.0000 -1.0000 0.0000
vn -0.2113 -0.5773 0.7887
vn 0.2113 -0.5773 0.7887
vn 0.5774 -0.5773 0.5774
vn 0.7887 -0.5773 0.2113
vn -0.2113 -0.5773 -0.7887
vn 0.2113 -0.5773 -0.7887
vn 0.7887 -0.5773 -0.2113
vn -0.5774 -0.5773 -0.5774
vn 0.5774 -0.5773 -0.5774
vn -0.7887 -0.5773 -0.2113
vn -0.7887 -0.5773 0.2113
vn 0.0000 1.0000 0.0000
s off
f 2/1/1 3/2/1 1/3/1
f 4/4/2 5/5/2 3/2/2
f 6/6/3 7/7/3 5/5/3
f 8/8/4 9/9/4 7/7/4
f 10/10/5 11/11/5 9/9/5
f 12/12/6 13/13/6 11/11/6
f 14/14/7 15/15/7 13/13/7
f 16/16/8 17/17/8 15/15/8
f 18/18/9 19/19/9 17/17/9
f 20/20/10 21/21/10 19/19/10
f 16/16/11 33/22/11 18/18/11
f 22/23/12 23/24/12 21/21/12
f 24/25/13 1/26/13 23/24/13
f 7/27/14 15/28/14 23/29/14
f 29/30/5 42/31/5 30/32/5
f 14/14/15 32/33/15 16/16/15
f 12/12/16 31/34/16 14/14/16
f 10/10/17 30/32/17 12/12/17
f 8/8/18 29/30/18 10/10/18
f 2/35/19 36/36/19 26/37/19
f 4/4/20 26/38/20 25/39/20
f 6/6/21 28/40/21 8/8/21
f 22/23/22 36/36/22 24/25/22
f 6/6/23 25/39/23 27/41/23
f 20/20/24 35/42/24 22/23/24
f 18/18/25 34/43/25 20/20/25
f 43/44/26 41/45/26 39/46/26
f 36/36/13 38/47/13 26/37/13
f 25/39/2 39/48/2 27/41/2
f 33/22/9 46/49/9 34/43/9
f 30/32/6 43/50/6 31/34/6
f 27/41/3 40/51/3 28/40/3
f 34/43/10 47/52/10 35/42/10
f 31/34/7 44/53/7 32/33/7
f 28/40/4 41/54/4 29/30/4
f 35/42/12 48/55/12 36/36/12
f 26/38/1 37/56/1 25/39/1
f 32/33/8 45/57/8 33/22/8
f 2/1/1 4/4/1 3/2/1
f 4/4/2 6/6/2 5/5/2
f 6/6/3 8/8/3 7/7/3
f 8/8/4 10/10/4 9/9/4
f 10/10/5 12/12/5 11/11/5
f 12/12/6 14/14/6 13/13/6
f 14/14/7 16/16/7 15/15/7
f 16/16/8 18/18/8 17/17/8
f 18/18/9 20/20/9 19/19/9
f 20/20/10 22/23/10 21/21/10
f 16/16/11 32/33/11 33/22/11
f 22/23/12 24/25/12 23/24/12
f 24/25/13 2/35/13 1/26/13
f 23/29/14 1/58/14 3/59/14
f 3/59/14 5/60/14 7/27/14
f 7/27/14 9/61/14 11/62/14
f 11/62/14 13/63/14 15/28/14
f 15/28/14 17/64/14 19/65/14
f 19/65/14 21/66/14 15/28/14
f 21/66/14 23/29/14 15/28/14
f 23/29/14 3/59/14 7/27/14
f 7/27/14 11/62/14 15/28/14
f 29/30/5 41/54/5 42/31/5
f 14/14/15 31/34/15 32/33/15
f 12/12/16 30/32/16 31/34/16
f 10/10/17 29/30/17 30/32/17
f 8/8/18 28/40/18 29/30/18
f 2/35/19 24/25/19 36/36/19
f 4/4/20 2/1/20 26/38/20
f 6/6/21 27/41/21 28/40/21
f 22/23/22 35/42/22 36/36/22
f 6/6/23 4/4/23 25/39/23
f 20/20/24 34/43/24 35/42/24
f 18/18/25 33/22/25 34/43/25
f 39/46/26 37/67/26 38/68/26
f 38/68/26 48/69/26 47/70/26
f 47/70/26 46/71/26 45/72/26
f 45/72/26 44/73/26 47/70/26
f 44/73/26 43/44/26 47/70/26
f 43/44/26 42/74/26 41/45/26
f 41/45/26 40/75/26 39/46/26
f 39/46/26 38/68/26 43/44/26
f 38/68/26 47/70/26 43/44/26
f 36/36/13 48/55/13 38/47/13
f 25/39/2 37/56/2 39/48/2
f 33/22/9 45/57/9 46/49/9
f 30/32/6 42/31/6 43/50/6
f 27/41/3 39/48/3 40/51/3
f 34/43/10 46/49/10 47/52/10
f 31/34/7 43/50/7 44/53/7
f 28/40/4 40/51/4 41/54/4
f 35/42/12 47/52/12 48/55/12
f 26/38/1 38/76/1 37/56/1
f 32/33/8 44/53/8 45/57/8
